HIERARCHY
ROOT Hips
{
	OFFSET 0.000000 0.000000 0.000000 
	CHANNELS 6 Xposition Yposition Zposition Zrotation Yrotation Xrotation
	JOINT LeftUpLeg
	{
		OFFSET 1.363060 -1.794630 0.839290 
		CHANNELS 3 Zrotation Yrotation Xrotation
		JOINT LeftLeg
		{
			OFFSET 2.448110 -6.726130 0.000000 
			CHANNELS 3 Zrotation Yrotation Xrotation
			JOINT LeftFoot
			{
				OFFSET 2.562200 -7.039590 0.000000 
				CHANNELS 3 Zrotation Yrotation Xrotation
				JOINT LeftToeBase
				{
					OFFSET 0.157640 -0.433110 2.322550 
					CHANNELS 3 Zrotation Yrotation Xrotation
					End Site
					{
						OFFSET 0.000000 0.000000 0.000000 
					}
				}
			}
		}
	}
	JOINT RightUpLeg
	{
		OFFSET -1.305520 -1.794630 0.839290 
		CHANNELS 3 Zrotation Yrotation Xrotation
		JOINT RightLeg
		{
			OFFSET -2.542530 -6.985550 0.000000 
			CHANNELS 3 Zrotation Yrotation Xrotation
			JOINT RightFoot
			{
				OFFSET -2.568260 -7.056230 0.000000 
				CHANNELS 3 Zrotation Yrotation Xrotation
				JOINT RightToeBase
				{
					OFFSET -0.164730 -0.452590 2.363150 
					CHANNELS 3 Zrotation Yrotation Xrotation
					End Site
					{
						OFFSET 0.000000 0.000000 0.000000 
					}
				}
			}
		}
	}
	JOINT Spine
	{
		OFFSET 0.028270 2.035590 -0.193380 
		CHANNELS 3 Zrotation Yrotation Xrotation
		JOINT Spine1
		{
			OFFSET 0.056720 2.048850 -0.042750 
			CHANNELS 3 Zrotation Yrotation Xrotation
			JOINT Neck1
			{
				OFFSET -0.054170 1.746240 0.172020 
				CHANNELS 3 Zrotation Yrotation Xrotation
				JOINT Head
				{
					OFFSET 0.104070 1.761360 -0.123970 
					CHANNELS 3 Zrotation Yrotation Xrotation
					End Site
					{
						OFFSET 0.000000 0.000000 0.000000 
					}
				}
			}
			JOINT LeftArm
			{
				OFFSET 3.362410 1.200890 -0.311210 
				CHANNELS 3 Zrotation Yrotation Xrotation
				JOINT LeftForeArm
				{
					OFFSET 4.983000 -0.000000 -0.000000 
					CHANNELS 3 Zrotation Yrotation Xrotation
					JOINT LeftHand
					{
						OFFSET 3.483560 -0.000000 -0.000000 
						CHANNELS 3 Zrotation Yrotation Xrotation
						JOINT LeftHandIndex1
						{
							OFFSET 0.715260 -0.000000 -0.000000 
							CHANNELS 3 Zrotation Yrotation Xrotation
							End Site
							{
								OFFSET 0.000000 0.000000 0.000000 
							}
						}
					}
				}
			}
			JOINT RightArm
			{
				OFFSET -3.136600 1.374050 -0.404650 
				CHANNELS 3 Zrotation Yrotation Xrotation
				JOINT RightForeArm
				{
					OFFSET -5.241900 -0.000000 -0.000000 
					CHANNELS 3 Zrotation Yrotation Xrotation
					JOINT RightHand
					{
						OFFSET -3.444170 -0.000000 -0.000000 
						CHANNELS 3 Zrotation Yrotation Xrotation
						JOINT RightHandIndex1
						{
							OFFSET -0.622530 -0.000000 -0.000000 
							CHANNELS 3 Zrotation Yrotation Xrotation
							End Site
							{
								OFFSET 0.000000 0.000000 0.000000 
							}
						}
					}
				}
			}
		}
	}
}
MOTION
Frames: 13
Frame Time: 0.041667
33.090741 17.621714 6.201032 169.310219 -85.758510 -168.376680 -16.264813 -3.201796 -14.817028 0.540827 9.541553 25.460065 0.022762 2.672660 3.691795 0.065700 1.653600 4.549100 9.070127 5.078972 -38.835291 -14.096473 -19.974856 73.559351 -39.865098 16.426460 -158.966097 -0.769000 -5.599700 15.627200 0.733784 -3.032972 -4.562415 4.816454 -1.916973 -1.647285 7.792358 -3.888717 5.831686 3.129000 -1.504600 7.492100 -92.022702 -7.523799 48.710633 52.334876 -58.926246 -23.539479 -0.573049 2.080063 2.160978 -7.125000 0.000000 0.000000 80.102851 -13.986960 19.035686 -16.889577 32.510054 -6.242981 -0.027771 0.964147 15.255531 7.125000 0.000000 0.000000 
32.995322 17.661736 6.204699 162.319179 -86.525644 -161.725920 -16.861183 -3.537813 -13.677910 0.444871 9.268464 24.818105 -0.006477 2.756769 3.607775 0.056500 1.533700 4.218500 8.459139 4.964693 -42.153832 -13.198360 -19.785990 70.791951 -39.789159 15.775844 -159.073718 -0.790600 -5.675900 15.846900 0.824820 -3.597789 -4.650283 5.318816 -2.224623 -2.330824 7.762999 -3.581581 6.070679 3.161500 -1.368800 7.609500 -91.816488 -8.656187 49.238030 53.897281 -59.367718 -24.475665 -0.548125 2.040505 2.237081 -7.125000 0.000000 0.000000 79.284639 -15.006444 17.811846 -16.457298 32.017077 -6.031739 -0.013471 0.967953 15.564225 7.125000 0.000000 0.000000 
32.895727 17.698396 6.204495 155.256127 -87.447434 -155.092600 -17.222461 -3.927125 -12.361921 0.348457 8.995698 24.175766 0.019982 2.641075 3.550150 0.066200 1.660300 4.567800 8.066250 4.699241 -45.277708 -12.466367 -19.612660 68.570631 -39.714861 15.566545 -158.798563 -0.955000 -6.223100 17.433000 0.922158 -4.241996 -4.681509 5.660084 -2.569272 -2.791345 7.569809 -3.298051 6.192685 3.070000 -1.253700 7.620000 -91.497687 -9.768898 49.616205 55.507333 -59.809590 -25.488713 -0.577946 2.017562 2.240247 -7.125000 0.000000 0.000000 78.476004 -16.193672 17.182060 -16.366904 31.972639 -6.019998 -0.010707 0.976870 15.529683 7.125000 0.000000 0.000000 
32.788699 17.727317 6.197570 149.120832 -88.270845 -149.300413 -17.390135 -4.239148 -11.155355 0.263281 8.763673 23.602351 0.037300 2.570375 3.501817 0.058200 1.556800 4.282400 7.870051 4.625428 -48.237737 -11.950681 -19.484147 66.994047 -39.692500 15.297635 -158.854749 -0.914200 -6.092400 17.052800 0.992071 -4.806846 -4.530879 5.747846 -2.895114 -2.345309 7.550934 -3.023569 6.145272 3.054200 -1.113000 7.594500 -90.968915 -11.395591 49.960433 56.763537 -60.103707 -26.312979 -0.591845 1.985735 2.176072 -7.125000 0.000000 0.000000 78.052197 -16.629865 16.417802 -16.199674 31.849517 -5.968287 -0.004058 0.978295 15.662659 7.125000 0.000000 0.000000 
32.682892 17.758988 6.192376 139.990250 -89.064006 -140.529321 -17.573632 -4.560049 -9.955619 0.180472 8.529851 23.026827 0.054250 2.497489 3.437024 0.056900 1.538600 4.232100 7.614015 4.556464 -51.222001 -11.412985 -19.322243 65.347897 -39.663778 15.085248 -158.813918 -0.966100 -6.258000 17.534900 1.084420 -5.339330 -4.493387 6.004188 -3.174907 -2.419206 7.472846 -2.758621 6.209093 3.018000 -0.991000 7.610900 -90.537898 -12.639111 50.252483 58.226256 -60.428686 -27.256907 -0.601820 1.955880 2.182761 -7.125000 0.000000 0.000000 77.390698 -17.474212 15.764924 -16.077896 31.773869 -5.940288 0.000795 0.984591 15.676259 7.125000 0.000000 0.000000 
32.573725 17.789131 6.185248 128.780552 -89.757011 -129.650225 -17.663486 -4.865072 -8.830477 0.096599 8.325404 22.469437 0.069271 2.441003 3.355552 0.055700 1.522900 4.189000 7.412942 4.592602 -54.100491 -10.989767 -19.165164 64.034540 -39.630317 14.889597 -158.725836 -1.019600 -6.423800 18.019100 1.176757 -5.785547 -4.456017 6.239648 -3.387600 -2.463418 7.397253 -2.519071 6.270529 2.976900 -0.880100 7.628900 -90.099193 -13.782309 50.491429 59.652110 -60.715115 -28.185709 -0.610877 1.927114 2.234551 -7.125000 0.000000 0.000000 76.742153 -18.342988 15.223903 -16.005409 31.765169 -5.939739 0.004109 0.993263 15.588931 7.125000 0.000000 0.000000 
32.461198 17.818052 6.177101 -65.990830 -89.736872 64.836173 -17.714017 -5.137387 -7.838149 0.005309 8.162848 21.917589 0.076691 2.427806 3.249680 0.054300 1.503100 4.134200 7.217165 4.774996 -56.859712 -10.676363 -19.002783 63.029304 -39.587856 14.684459 -158.596163 -1.060200 -6.546600 18.378800 1.262532 -6.107246 -4.423465 6.461920 -3.503520 -2.491172 7.334536 -2.312660 6.349048 2.938500 -0.783300 7.665200 -89.668386 -14.826806 50.698892 61.018763 -60.959658 -29.082094 -0.614297 1.900347 2.340774 -7.125000 0.000000 0.000000 76.112261 -19.221532 14.734639 -15.952510 31.784740 -5.950166 0.007302 1.003425 15.406243 7.125000 0.000000 0.000000 
32.345513 17.845955 6.168547 -85.299080 -89.495126 83.917894 -17.763527 -5.378650 -7.009752 -0.096609 8.053666 21.370860 0.072234 2.476661 3.107089 0.053200 1.488500 4.094000 6.995391 5.128704 -59.477398 -10.469802 -18.831145 62.323544 -39.538499 14.486218 -158.429738 -1.095400 -6.650900 18.685300 1.339329 -6.295111 -4.402832 6.679590 -3.517789 -2.537663 7.277087 -2.142959 6.448180 2.899600 -0.703500 7.718400 -89.261595 -15.750932 50.890070 62.319743 -61.167386 -29.940366 -0.614220 1.877852 2.496849 -7.125000 0.000000 0.000000 75.496524 -20.142628 14.281761 -15.925391 31.839985 -5.975284 0.008919 1.015506 15.151182 7.125000 0.000000 0.000000 
32.226876 17.872534 6.159789 -106.779725 -89.526703 105.232483 -17.822235 -5.586073 -6.298711 -0.200114 7.975467 20.838553 0.055640 2.580715 2.936288 0.051900 1.470000 4.043000 6.727031 5.618490 -61.986014 -10.351105 -18.677788 61.885006 -39.492057 14.337548 -158.236724 -1.128000 -6.745800 18.964300 1.409639 -6.416353 -4.391120 6.883505 -3.498218 -2.591368 7.229636 -1.998920 6.559110 2.866900 -0.635600 7.779900 -88.873444 -16.588636 51.065886 63.530200 -61.338781 -30.745777 -0.612554 1.859713 2.671799 -7.125000 0.000000 0.000000 74.902633 -21.093320 13.863205 -15.914564 31.919435 -6.009822 0.009814 1.029393 14.822618 7.125000 0.000000 0.000000 
32.105794 17.897789 6.151032 -126.045071 -89.768983 124.370761 -17.866119 -5.758343 -5.594938 -0.290384 7.883429 20.334492 0.037770 2.683438 2.762346 0.050200 1.445900 3.976600 6.410371 6.137889 -64.441868 -10.300625 -18.584983 61.685457 -39.462177 14.283936 -158.048760 -1.148900 -6.805900 19.141500 1.485746 -6.559368 -4.403225 7.107256 -3.522229 -2.731678 7.170572 -1.873367 6.682568 2.832300 -0.579500 7.846400 -88.527974 -17.307631 51.228562 64.656827 -61.483051 -31.498811 -0.610719 1.846400 2.839142 -7.125000 0.000000 0.000000 74.298708 -22.124750 13.479971 -15.929873 32.033401 -6.060498 0.008917 1.044058 14.479025 7.125000 0.000000 0.000000 
31.982675 17.921720 6.141968 39.472219 -89.872542 -41.257166 -17.876769 -5.894516 -4.834625 -0.360163 7.761257 19.871236 0.022575 2.760722 2.591128 0.048100 1.415300 3.892300 6.066782 6.620211 -66.847927 -10.308144 -18.567113 61.704492 -39.452163 14.338030 -157.879156 -1.161400 -6.841500 19.246700 1.563199 -6.744599 -4.418962 7.314189 -3.607947 -2.879763 7.108611 -1.762291 6.806521 2.798000 -0.530500 7.918300 -88.185800 -17.997659 51.391046 65.679726 -61.598246 -32.190298 -0.610327 1.836612 2.939414 -7.125000 0.000000 0.000000 73.736271 -23.149638 13.100374 -15.956733 32.161988 -6.118348 0.007113 1.058564 14.145359 7.125000 0.000000 0.000000 
31.857826 17.944226 6.132599 28.644798 -89.465340 -30.549737 -17.847248 -5.987156 -4.018827 -0.414655 7.615892 19.437686 0.012379 2.806834 2.430158 0.045300 1.373800 3.778000 5.724737 7.047988 -69.152782 -10.373197 -18.607917 61.930938 -39.459116 14.507849 -157.720583 -1.173600 -6.876200 19.349000 1.647238 -6.962052 -4.450127 7.537499 -3.729733 -3.098945 7.040572 -1.643180 6.924968 2.767300 -0.481500 7.973500 -87.872995 -18.575299 51.521166 66.615253 -61.691525 -32.824868 -0.611753 1.828688 2.957178 -7.125000 0.000000 0.000000 73.160570 -24.203974 12.766660 -15.980946 32.288231 -6.175574 0.005953 1.072920 13.820118 7.125000 0.000000 0.000000 
31.731652 17.965509 6.123129 20.043820 -89.030633 -22.092884 -17.785572 -6.038030 -3.155621 -0.458646 7.457611 19.026823 0.009283 2.818136 2.278428 0.041900 1.320800 3.631800 5.411084 7.404087 -71.307458 -10.494505 -18.689658 62.344586 -39.478060 14.734563 -157.595574 -1.168700 -6.862300 19.308000 1.732768 -7.187752 -4.488310 7.765566 -3.865503 -3.366733 6.967043 -1.532001 7.046776 2.735100 -0.437500 8.032400 -87.580711 -19.085585 51.636562 67.464616 -61.763374 -33.401430 -0.615496 1.821016 2.880710 -7.125000 0.000000 0.000000 72.603592 -25.236610 12.439208 -15.993781 32.396731 -6.225844 0.005903 1.085855 13.519622 7.125000 0.000000 0.000000 
